<svg width="77.4" height="80" version="1.1" viewBox="0 0 77.4 80" xmlns="http://www.w3.org/2000/svg"> <title>Firefox Nightly logo</title> <defs> <linearGradient id="a" x1="74.8" x2="7.74" y1="20.5" y2="62.8" gradientTransform="translate(-1.3 -.00409)" gradientUnits="userSpaceOnUse"> <stop stop-color="#3fe1b0" offset="0"/> <stop stop-color="#00b3f4" offset=".406"/> <stop stop-color="#03b0f4" offset=".421"/> <stop stop-color="#5561e9" offset=".818"/> <stop stop-color="#7542e5" offset="1"/> </linearGradient> <radialGradient id="b" cx="-7907" cy="-8515" r="80.8" gradientTransform="translate(7974,8524)" gradientUnits="userSpaceOnUse"> <stop stop-color="#3fe1b0" offset=".108"/> <stop stop-color="#3bdcb3" offset=".122"/> <stop stop-color="#1bb3d3" offset=".254"/> <stop stop-color="#0799e6" offset=".358"/> <stop stop-color="#0090ed" offset=".42"/> <stop stop-color="#2482f1" offset=".487"/> <stop stop-color="#7165fb" offset=".64"/> <stop stop-color="#9059ff" offset=".71"/> <stop stop-color="#7d49ed" offset=".795"/> <stop stop-color="#7542e5" offset=".86"/> </radialGradient> <radialGradient id="c" cx="-7937" cy="-8482" r="80.8" gradientTransform="translate(7974,8524)" gradientUnits="userSpaceOnUse"> <stop stop-color="#45278d" offset=".3"/> <stop stop-color="#562896" stop-opacity=".787" offset=".341"/> <stop stop-color="#782aa9" stop-opacity=".364" offset=".43"/> <stop stop-color="#8d2bb5" stop-opacity=".1" offset=".495"/> <stop stop-color="#952bb9" stop-opacity="0" offset=".53"/> </radialGradient> <radialGradient id="d" cx="-7927" cy="-8533" r="58.5" gradientTransform="translate(7974,8524)" gradientUnits="userSpaceOnUse"> <stop stop-color="#3fe1b0" offset=".132"/> <stop stop-color="#28d0c8" offset=".289"/> <stop stop-color="#00b3f4" offset=".526"/> </radialGradient> <radialGradient id="e" cx="-7946" cy="-8461" r="38.5" gradientTransform="translate(7974,8524)" gradientUnits="userSpaceOnUse"> <stop stop-color="#0060df" offset=".287"/> <stop stop-color="#2357e1" offset=".417"/> <stop stop-color="#4f4ce3" offset=".604"/> <stop stop-color="#6b45e4" offset=".748"/> <stop stop-color="#7542e5" offset=".833"/> </radialGradient> <radialGradient id="f" cx="-7936" cy="-8492" r="20.4" gradientTransform="matrix(.972 -.235 .275 1.14 10090 7834)" gradientUnits="userSpaceOnUse"> <stop stop-color="#45278d" stop-opacity="0" offset=".206"/> <stop stop-color="#44268a" stop-opacity=".055" offset=".251"/> <stop stop-color="#371f6f" stop-opacity=".591" offset=".725"/> <stop stop-color="#321c64" stop-opacity=".8" offset=".956"/> </radialGradient> <radialGradient id="g" cx="-7944" cy="-8467" r=".626" gradientTransform="translate(7974,8524)" gradientUnits="userSpaceOnUse"> <stop stop-color="#3a8ee6" offset=".353"/> <stop stop-color="#5c79f0" offset=".472"/> <stop stop-color="#9059ff" offset=".669"/> <stop stop-color="#c139e6" offset="1"/> </radialGradient> <radialGradient id="h" cx="-7943" cy="-8467" r=".224" gradientTransform="matrix(.972 -.235 .275 1.14 10083 7829)" gradientUnits="userSpaceOnUse"> <stop stop-color="#9059ff" stop-opacity="0" offset=".206"/> <stop stop-color="#8c4ff3" stop-opacity=".064" offset=".278"/> <stop stop-color="#7716a8" stop-opacity=".45" offset=".747"/> <stop stop-color="#6e008b" stop-opacity=".6" offset=".975"/> </radialGradient> <radialGradient id="i" cx="-7938" cy="-8518" r="27.7" gradientTransform="translate(7974,8524)" gradientUnits="userSpaceOnUse"> <stop stop-color="#0df" offset="0"/> <stop stop-color="#00d6fd" offset=".235"/> <stop stop-color="#00c3f8" offset=".572"/> <stop stop-color="#00b3f4" offset=".792"/> </radialGradient> <radialGradient id="j" cx="-7916" cy="-8536" r="118" gradientTransform="translate(7974,8524)" gradientUnits="userSpaceOnUse"> <stop stop-color="#3fe1b0" offset=".126"/> <stop stop-color="#0df" offset=".429"/> <stop stop-color="#1ec1ff" offset=".479"/> <stop stop-color="#7077ff" offset=".624"/> <stop stop-color="#9059ff" offset=".69"/> <stop stop-color="#b833e1" offset=".904"/> </radialGradient> <radialGradient id="k" cx="-7927" cy="-8523" r="86.5" gradientTransform="matrix(.105 .995 -.653 .069 -4685 8470)" gradientUnits="userSpaceOnUse"> <stop stop-color="#54ffbd" offset="0"/> <stop stop-color="#4cf3b8" offset=".095"/> <stop stop-color="#3fe1b0" offset=".197"/> <stop stop-color="#33d8bd" offset=".257"/> <stop stop-color="#12c0e1" offset=".369"/> <stop stop-color="#00b3f4" offset=".423"/> <stop stop-color="#0060df" offset=".737"/> </radialGradient> <radialGradient id="l" cx="-7938" cy="-8508" r="73.7" gradientTransform="translate(7974,8524)" gradientUnits="userSpaceOnUse"> <stop stop-color="#3fe1b0" offset=".137"/> <stop stop-color="#0df" offset=".435"/> <stop stop-color="#1ec1ff" offset=".484"/> <stop stop-color="#7077ff" offset=".622"/> <stop stop-color="#9059ff" offset=".685"/> </radialGradient> <radialGradient id="m" cx="-7919" cy="-8504" r="80.7" gradientTransform="translate(7974,8524)" gradientUnits="userSpaceOnUse"> <stop stop-color="#54ffbd" offset=".094"/> <stop stop-color="#41f7cc" offset=".242"/> <stop stop-color="#0fe3f3" offset=".543"/> <stop stop-color="#0df" offset=".626"/> </radialGradient> <linearGradient id="n" x1="70" x2="15.3" y1="12.1" y2="66.8" gradientTransform="translate(-1.3 -.00409)" gradientUnits="userSpaceOnUse"> <stop stop-color="#54ffbd" stop-opacity=".8" offset=".167"/> <stop stop-color="#43f8ca" stop-opacity=".639" offset=".236"/> <stop stop-color="#27ede1" stop-opacity=".368" offset=".361"/> <stop stop-color="#12e4f1" stop-opacity=".169" offset=".466"/> <stop stop-color="#05dffb" stop-opacity=".046" offset=".545"/> <stop stop-color="#0df" stop-opacity="0" offset=".589"/> </linearGradient> </defs> <g transform="matrix(.9925 0 0 1.001 .2287 -2.108e-5)"> <path d="m74.6 26.8c-1.68-4.05-5.1-8.43-7.78-9.81a40.3 40.3 0 0 1 3.92 11.8l7e-3 0.065c-4.38-10.9-11.8-15.3-17.9-24.9-0.307-0.485-0.614-0.971-0.913-1.48-0.171-0.293-0.308-0.557-0.427-0.8a7.05 7.05 0 0 1-0.578-1.54 0.1 0.1 0 0 0-0.088-0.1 0.138 0.138 0 0 0-0.073 0c-5e-3 0-0.013 9e-3 -0.019 0.011s-0.019 0.011-0.028 0.015l0.015-0.026c-9.74 5.7-13 16.3-13.3 21.5a19.4 19.4 0 0 0-10.7 4.11 11.6 11.6 0 0 0-1-0.758 18 18 0 0 1-0.109-9.47 28.7 28.7 0 0 0-9.33 7.21h-0.018c-1.54-1.95-1.43-8.37-1.34-9.71a6.93 6.93 0 0 0-1.29 0.687 28.2 28.2 0 0 0-3.79 3.24 33.8 33.8 0 0 0-3.62 4.35v6e-3 -7e-3a32.7 32.7 0 0 0-5.2 11.7l-0.052 0.256c-0.073 0.341-0.336 2.05-0.381 2.42 0 0.029-6e-3 0.056-9e-3 0.085a36.9 36.9 0 0 0-0.629 5.34v0.2a38.8 38.8 0 0 0 77 6.55c0.065-0.5 0.118-0.995 0.176-1.5a39.9 39.9 0 0 0-2.51-19.5zm-44.7 30.3c0.181 0.087 0.351 0.181 0.537 0.264l0.027 0.017q-0.282-0.135-0.564-0.281zm8.88-23.4m32-4.93v-0.037l7e-3 0.041z" style="fill:url(#a)"/> <path d="m70.8 28.9-7e-3 -0.041v0.037z" style="fill:none"/> <path d="m74.6 26.8c-1.68-4.05-5.1-8.43-7.78-9.81a40.3 40.3 0 0 1 3.92 11.8v0.037l7e-3 0.041a35.1 35.1 0 0 1-1.21 26.2c-4.44 9.53-15.2 19.3-32 18.8-18.2-0.515-34.2-14-37.2-31.7-0.545-2.79 0-4.2 0.274-6.46a28.9 28.9 0 0 0-0.623 5.35v0.2a38.8 38.8 0 0 0 77 6.55c0.065-0.5 0.118-0.995 0.176-1.5a39.9 39.9 0 0 0-2.51-19.5z" style="fill:url(#b)"/> <path d="m74.6 26.8c-1.68-4.05-5.1-8.43-7.78-9.81a40.3 40.3 0 0 1 3.92 11.8v0.037l7e-3 0.041a35.1 35.1 0 0 1-1.21 26.2c-4.44 9.53-15.2 19.3-32 18.8-18.2-0.515-34.2-14-37.2-31.7-0.545-2.79 0-4.2 0.274-6.46a28.9 28.9 0 0 0-0.623 5.35v0.2a38.8 38.8 0 0 0 77 6.55c0.065-0.5 0.118-0.995 0.176-1.5a39.9 39.9 0 0 0-2.51-19.5z" style="fill:url(#c)"/> <path d="m55.8 31.4c0.084 0.059 0.162 0.118 0.241 0.177a21.1 21.1 0 0 0-3.6-4.7c-12-12-3.16-26.1-1.66-26.8l0.015-0.022c-9.74 5.7-13 16.3-13.3 21.5 0.452-0.031 0.9-0.069 1.36-0.069a19.6 19.6 0 0 1 17 9.92z" style="fill:url(#d)"/> <path d="m38.8 33.8c-0.064 0.964-3.47 4.29-4.66 4.29-11 0-12.8 6.67-12.8 6.67 0.488 5.61 4.4 10.2 9.13 12.7 0.216 0.112 0.435 0.213 0.654 0.312q0.569 0.252 1.14 0.466a17.2 17.2 0 0 0 5.04 0.973c19.3 0.906 23.1-23.1 9.12-30.1a13.4 13.4 0 0 1 9.34 2.27 19.6 19.6 0 0 0-17-9.92c-0.46 0-0.91 0.038-1.36 0.069a19.4 19.4 0 0 0-10.7 4.11c0.591 0.5 1.26 1.17 2.66 2.55 2.63 2.59 9.38 5.28 9.39 5.59z" style="fill:url(#e)"/> <path d="m38.8 33.8c-0.064 0.964-3.47 4.29-4.66 4.29-11 0-12.8 6.67-12.8 6.67 0.488 5.61 4.4 10.2 9.13 12.7 0.216 0.112 0.435 0.213 0.654 0.312q0.569 0.252 1.14 0.466a17.2 17.2 0 0 0 5.04 0.973c19.3 0.906 23.1-23.1 9.12-30.1a13.4 13.4 0 0 1 9.34 2.27 19.6 19.6 0 0 0-17-9.92c-0.46 0-0.91 0.038-1.36 0.069a19.4 19.4 0 0 0-10.7 4.11c0.591 0.5 1.26 1.17 2.66 2.55 2.63 2.59 9.38 5.28 9.39 5.59z" style="fill:url(#f)"/> <path d="m29.9 57.2q0.282 0.145 0.564 0.281l-0.027-0.017c-0.183-0.083-0.356-0.177-0.537-0.264z" style="fill:url(#g)"/> <path d="m29.9 57.2q0.282 0.145 0.564 0.281l-0.027-0.017c-0.183-0.083-0.356-0.177-0.537-0.264z" style="fill:url(#h)"/> <path d="m25 24.4c0.314 0.2 0.573 0.374 0.8 0.531a18 18 0 0 1-0.109-9.47 28.7 28.7 0 0 0-9.33 7.21c0.189-5e-3 5.81-0.106 8.64 1.73z" style="fill:url(#i)"/> <path d="m0.354 42.2c2.99 17.7 19 31.2 37.2 31.7 16.8 0.476 27.6-9.29 32-18.8a35.1 35.1 0 0 0 1.21-26.2v-0.037c0-0.029-6e-3 -0.046 0-0.037l7e-3 0.065c1.38 8.98-3.19 17.7-10.3 23.6l-0.022 0.05c-13.9 11.3-27.2 6.83-29.9 5q-0.282-0.135-0.564-0.281c-8.11-3.88-11.5-11.3-10.7-17.6a9.95 9.95 0 0 1-9.18-5.78 14.6 14.6 0 0 1 14.2-0.572 19.3 19.3 0 0 0 14.6 0.572c-0.015-0.315-6.76-3-9.39-5.59-1.4-1.38-2.07-2.05-2.66-2.55a11.6 11.6 0 0 0-1-0.758c-0.23-0.157-0.489-0.327-0.8-0.531-2.83-1.84-8.45-1.74-8.64-1.73h-0.018c-1.54-1.95-1.43-8.37-1.34-9.71a6.93 6.93 0 0 0-1.29 0.687 28.2 28.2 0 0 0-3.79 3.24 33.8 33.8 0 0 0-3.64 4.34v6e-3 -7e-3a32.7 32.7 0 0 0-5.2 11.7c-0.019 0.079-1.4 6.1-0.717 9.22z" style="fill:url(#j)"/> <path d="m38.8 33.8h-1e-3z" style="fill:#ff4aa2"/> <path d="m52.4 26.9a21.1 21.1 0 0 1 3.6 4.7c0.213 0.161 0.412 0.321 0.581 0.476 8.79 8.1 4.18 19.6 3.84 20.4 7.14-5.88 11.7-14.6 10.3-23.6-4.38-10.9-11.8-15.3-17.9-24.9-0.307-0.485-0.614-0.971-0.913-1.48-0.171-0.293-0.308-0.557-0.427-0.8a7.05 7.05 0 0 1-0.578-1.54 0.1 0.1 0 0 0-0.088-0.1 0.138 0.138 0 0 0-0.073 0c-5e-3 0-0.013 9e-3 -0.019 0.011s-0.019 0.011-0.028 0.015c-1.5 0.711-10.4 14.8 1.66 26.8z" style="fill:url(#k)"/> <path d="m56.6 32c-0.169-0.155-0.368-0.315-0.581-0.476-0.079-0.059-0.157-0.118-0.241-0.177a13.4 13.4 0 0 0-9.34-2.27c13.9 6.97 10.2 31-9.12 30.1a17.2 17.2 0 0 1-5.04-0.973q-0.569-0.213-1.14-0.466c-0.219-0.1-0.438-0.2-0.654-0.312l0.027 0.017c2.69 1.84 16 6.33 29.9-5l0.022-0.05c0.347-0.81 4.95-12.3-3.84-20.4z" style="fill:url(#l)"/> <path d="m21.4 44.7s1.79-6.67 12.8-6.67c1.19 0 4.6-3.32 4.66-4.29a19.3 19.3 0 0 1-14.6-0.572 14.6 14.6 0 0 0-14.2 0.572 9.95 9.95 0 0 0 9.18 5.78c-0.718 6.34 2.63 13.7 10.7 17.6 0.181 0.087 0.351 0.181 0.537 0.264-4.73-2.44-8.64-7.07-9.13-12.7z" style="fill:url(#m)"/> <path d="m48.2 38.5-1e-3 1e-3z" style="fill:#ff4aa2"/> <path d="m74.6 26.8c-1.68-4.05-5.1-8.43-7.78-9.81a40.3 40.3 0 0 1 3.92 11.8l7e-3 0.065c-4.38-10.9-11.8-15.3-17.9-24.9-0.307-0.485-0.614-0.971-0.913-1.48-0.171-0.293-0.308-0.557-0.427-0.8a7.05 7.05 0 0 1-0.578-1.54 0.1 0.1 0 0 0-0.088-0.1 0.138 0.138 0 0 0-0.073 0c-5e-3 0-0.013 9e-3 -0.019 0.011s-0.019 0.011-0.028 0.015l0.015-0.026c-9.74 5.7-13 16.3-13.3 21.5 0.452-0.031 0.9-0.069 1.36-0.069a19.6 19.6 0 0 1 17 9.92 13.4 13.4 0 0 0-9.34-2.27c13.9 6.97 10.2 31-9.12 30.1a17.2 17.2 0 0 1-5.04-0.973q-0.569-0.213-1.14-0.466c-0.219-0.1-0.438-0.2-0.654-0.312l0.027 0.017q-0.282-0.135-0.564-0.281c0.181 0.087 0.351 0.181 0.537 0.264-4.73-2.45-8.64-7.07-9.13-12.7 0 0 1.79-6.67 12.8-6.67 1.19 0 4.6-3.32 4.66-4.29-0.015-0.315-6.76-3-9.39-5.59-1.4-1.38-2.07-2.05-2.66-2.55a11.6 11.6 0 0 0-1-0.758 18 18 0 0 1-0.109-9.47 28.7 28.7 0 0 0-9.33 7.21h-0.018c-1.54-1.95-1.43-8.37-1.34-9.71a6.93 6.93 0 0 0-1.29 0.687 28.2 28.2 0 0 0-3.79 3.24 33.8 33.8 0 0 0-3.62 4.35v6e-3 -7e-3a32.7 32.7 0 0 0-5.2 11.7l-0.052 0.256c-0.073 0.341-0.4 2.07-0.447 2.44a45.1 45.1 0 0 0-0.572 5.4v0.2a38.8 38.8 0 0 0 77 6.55c0.065-0.5 0.118-0.995 0.176-1.5a39.9 39.9 0 0 0-2.51-19.5zm-3.84 1.99 7e-3 0.041z" style="fill:url(#n)"/> </g> </svg>