<svg xmlns="http://www.w3.org/2000/svg" viewBox="0 0 128 128"><linearGradient id="a" x1="295.835" x2="295.835" y1="274.049" y2="272.933" gradientTransform="matrix(112 0 0 -112 -33069.5 30695)" gradientUnits="userSpaceOnUse"><stop offset="0" stop-color="#19D7FF"/><stop offset="1" stop-color="#1E64F0"/></linearGradient><circle cx="64" cy="64" r="62.5" fill="url(#a)"/><path d="M63.5 7.6v9.2h1V7.6Zm-3.902.26-.996.08.4 5 .996-.08zm8.804 0-.4 5 .996.08.4-5zm-13.709.554-.986.172 1.6 9.101.986-.173zm18.614 0-1.6 9.1.986.174 1.6-9.102zM49.883 9.47l-.965.261 1.299 4.801.965-.261Zm28.234 0-1.299 4.8.965.262 1.299-4.8zm-32.846 1.363-.943.336 3.102 8.7.941-.337zm37.458 0-3.1 8.7.941.335 3.102-8.699zm4.62 1.852-2.2 4.601.902.43 2.201-4.6zm-46.695.007-.908.416 2.1 4.6.908-.414zm-4.32 2.26-.867.498 4.6 8 .867-.498zm55.332 0-4.6 8 .868.498 4.6-8zm-59.559 2.56-.816.577 2.9 4.101.817-.578zm63.786 0-2.9 4.1.816.578 2.9-4.101zm-67.61 2.968-.765.644 5.9 7 .764-.644zm71.434 0-5.899 7 .764.644 5.9-7zm-75.168 3.263-.697.717 3.6 3.5.696-.717zm-3.33 3.574-.639.768 7.1 5.9.64-.77zm85.562 0-7.101 5.899.64.77 7.1-5.901zM18.184 31.19l-.569.823 4.201 2.9.569-.824zm91.632 0-4.2 2.899.568.824 4.2-2.9zM15.55 35.367l-.498.867 8 4.6.498-.867zm96.902 0-8 4.6.498.867 8-4.6zm-99.14 4.28-.422.906 4.5 2.1.422-.907zm101.378 0-4.5 2.1.422.905 4.5-2.1zM11.375 44.13l-.35.937 8.6 3.202.35-.938zm105.25 0-8.6 3.201.35.938 8.6-3.202zM9.828 48.816l-.256.967 4.9 1.301.257-.967zm108.344 0-4.9 1.301.255.967 4.9-1.3zM8.688 53.607l-.174.985 9.1 1.601.173-.986zm110.624 0-9.1 1.6.175.986 9.1-1.601zM8.05 58.402l-.098.996 5 .5.098-.996zm111.902 0-5 .5.098.996 5-.5zM7.801 63.4v1H17v-1zM111 63.4v1h9.2v-1zm-98.049 4.403-5 .5.098.994 5-.5zm102.098 0-.098.994 5 .5.098-.994zm-97.436 3.705-9.1 1.6.175.984 9.1-1.6zm92.774 0-.174.984 9.1 1.6.173-.985zm-95.914 5.11-4.9 1.298.255.967 4.9-1.299zm99.054 0-.256.966 4.9 1.299.257-.967zm-93.902 2.814-8.6 3.199.35.937 8.6-3.199zm88.75 0-.35.937 8.6 3.2.35-.938zm-90.986 5.615-4.5 2.1.422.906 4.5-2.1zm93.222 0-.422.906 4.5 2.1.422-.907zm-87.56 1.92-8 4.6.498.867 8-4.6zm81.898 0-.498.867 8 4.6.498-.868zm-83.133 5.822-4.2 2.9.568.823 4.2-2.9zm84.368 0-.569.822 4.201 2.9.569-.822zm-78.504.926-7.1 5.9.639.77 7.101-5.9zm72.64 0-.64.77 7.101 5.9.639-.77zm-66.902 5.863-5.9 7 .765.645 5.899-7zm61.164 0-.764.645 5.899 7 .765-.645zm5.967.164-.697.717 3.6 3.5.696-.717zm-60.48 4.606-4.6 7.9.863.504 4.6-7.9zm47.863 0-.864.504 4.6 7.9.863-.504zm-53.74 1.164-2.901 4.1.816.577 2.9-4.101zm59.617 0-.817.576 2.9 4.101.817-.578zm-46.38 2.32-3.1 8.7.942.335 3.1-8.699zm33.141 0-.941.336 3.1 8.7.943-.337zm-25.263 2.182-1.6 9.1.986.173 1.6-9.1zm17.386 0-.986.174 1.6 9.1.986-.175zm-30.742.066-2.201 4.5.898.44 2.202-4.5zm44.098 0-.899.44 2.202 4.5.898-.44Zm-22.549.82v9.2h1v-9.2zm-13.283 2.272-1.301 4.9.967.256 1.3-4.9zm27.566 0-.967.256 1.301 4.9.967-.256zm-18.781 1.687-.4 5 .996.08.4-5zm9.996 0-.996.08.4 5 .996-.08z" style="-inkscape-stroke:none" color="#000" fill="#fff"/><path fill="#f00" d="m106.7 21-48 37.7 5.2 5.2z"/><path fill="#D01414" d="m63.9 63.9 6 6L106.7 21z"/><path fill="#fff" d="m58.7 58.7-37.7 48 42.9-42.8z"/><path fill="#ACACAC" d="m21 106.7 48.9-36.8-6-6z"/></svg>