<svg width="16" height="16" viewBox="0 0 16 16" xmlns="http://www.w3.org/2000/svg" fill="currentColor"><path d="M7.99993 6.00316C9.47266 6.00316 10.6666 7.19708 10.6666 8.66981C10.6666 10.1426 9.47266 11.3365 7.99993 11.3365C6.52715 11.3365 5.33324 10.1426 5.33324 8.66981C5.33324 7.19708 6.52715 6.00316 7.99993 6.00316ZM7.99993 7.00315C7.07946 7.00315 6.33324 7.74935 6.33324 8.66981C6.33324 9.59028 7.07946 10.3365 7.99993 10.3365C8.9204 10.3365 9.6666 9.59028 9.6666 8.66981C9.6666 7.74935 8.9204 7.00315 7.99993 7.00315ZM7.99993 3.66675C11.0756 3.66675 13.7307 5.76675 14.4673 8.70968C14.5344 8.97755 14.3716 9.24908 14.1037 9.31615C13.8358 9.38315 13.5643 9.22041 13.4973 8.95248C12.8713 6.45205 10.6141 4.66675 7.99993 4.66675C5.38454 4.66675 3.12664 6.45359 2.50182 8.95555C2.43491 9.22341 2.16348 9.38635 1.89557 9.31948C1.62766 9.25255 1.46471 8.98115 1.53162 8.71321C2.26701 5.76856 4.9229 3.66675 7.99993 3.66675Z"/></svg>