<?xml version="1.0" encoding="UTF-8"?>
<!DOCTYPE svg PUBLIC "-//W3C//DTD SVG 1.1//EN" "http://www.w3.org/Graphics/SVG/1.1/DTD/svg11.dtd">
<svg xmlns="http://www.w3.org/2000/svg" version="1.1" width="608px" height="597px" style="shape-rendering:geometricPrecision; text-rendering:geometricPrecision; image-rendering:optimizeQuality; fill-rule:evenodd; clip-rule:evenodd" xmlns:xlink="http://www.w3.org/1999/xlink">
<g><path style="opacity:1" fill="#1e8d22" d="M 389.5,185.5 C 374.807,243.606 359.807,301.606 344.5,359.5C 316.587,351.522 288.587,343.855 260.5,336.5C 262.156,344.138 265.156,351.138 269.5,357.5C 284.969,380.965 306.302,396.298 333.5,403.5C 326.531,428.708 319.864,454.041 313.5,479.5C 313.685,480.584 314.018,481.584 314.5,482.5C 279.945,474.582 252.612,456.249 232.5,427.5C 221.423,408.593 213.09,388.593 207.5,367.5C 205.137,355.622 203.803,343.622 203.5,331.5C 200.198,279.282 206.531,228.282 222.5,178.5C 227.62,160.815 233.953,143.481 241.5,126.5C 243.283,121.768 245.949,117.601 249.5,114C 253.136,112.101 256.803,112.101 260.5,114C 297.552,148.201 340.552,172.034 389.5,185.5 Z M 317.5,278.5 C 293.388,272.457 269.721,265.457 246.5,257.5C 270.564,244.212 292.064,247.546 311,267.5C 313.682,270.865 315.849,274.531 317.5,278.5 Z"/></g>
<g><path style="opacity:1" fill="#374d59" d="M 241.5,126.5 C 233.953,143.481 227.62,160.815 222.5,178.5C 222.44,177.957 222.107,177.624 221.5,177.5C 218.139,179.511 214.806,181.511 211.5,183.5C 216.183,166.619 222.35,150.286 230,134.5C 232.369,129.617 236.203,126.95 241.5,126.5 Z"/></g>
<g><path style="opacity:1" fill="#bf4b41" d="M 222.5,178.5 C 206.531,228.282 200.198,279.282 203.5,331.5C 198.208,332.314 193.208,333.98 188.5,336.5C 188.5,325.167 188.5,313.833 188.5,302.5C 190.886,262.178 198.219,222.844 210.5,184.5C 210.5,183.833 210.833,183.5 211.5,183.5C 214.806,181.511 218.139,179.511 221.5,177.5C 222.107,177.624 222.44,177.957 222.5,178.5 Z"/></g>
<g><path style="opacity:1" fill="#e1574c" d="M 210.5,184.5 C 198.219,222.844 190.886,262.178 188.5,302.5C 179.343,270.342 170.343,238.009 161.5,205.5C 161.863,204.817 162.196,204.15 162.5,203.5C 178.976,198.342 194.976,192.009 210.5,184.5 Z"/></g>
<g><path style="opacity:1" fill="#30ad34" d="M 389.5,185.5 C 437.743,197.676 486.243,198.676 535,188.5C 540.988,187.695 544.988,190.029 547,195.5C 542.091,272.893 518.425,343.893 476,408.5C 463.788,425.228 449.954,440.562 434.5,454.5C 404.966,477.807 371.299,488.307 333.5,486C 327.066,485.261 320.733,484.095 314.5,482.5C 314.018,481.584 313.685,480.584 313.5,479.5C 319.864,454.041 326.531,428.708 333.5,403.5C 358.383,409.445 382.383,407.111 405.5,396.5C 412.523,392.646 418.856,387.812 424.5,382C 397.815,374.496 371.148,366.996 344.5,359.5C 359.807,301.606 374.807,243.606 389.5,185.5 Z M 461.5,321.5 C 439.099,315.645 416.765,309.478 394.5,303C 392.68,302.8 391.347,301.966 390.5,300.5C 414.551,287.219 436.051,290.553 455,310.5C 457.393,314.054 459.56,317.72 461.5,321.5 Z"/></g>
<g><path style="opacity:1" fill="#d65348" d="M 162.5,203.5 C 162.196,204.15 161.863,204.817 161.5,205.5C 170.343,238.009 179.343,270.342 188.5,302.5C 188.5,313.833 188.5,325.167 188.5,336.5C 179.134,339.88 171.134,345.213 164.5,352.5C 155.118,361.249 148.785,371.916 145.5,384.5C 160.883,380.706 176.217,376.706 191.5,372.5C 191.833,372.5 192.167,372.5 192.5,372.5C 196.118,394.022 203.118,414.356 213.5,433.5C 181.951,440.557 153.284,434.391 127.5,415C 107.347,398.188 90.8473,378.355 78,355.5C 53.953,311.524 40.1197,264.524 36.5,214.5C 36.4443,211.439 37.7776,209.272 40.5,208C 44.8333,207.333 49.1667,207.333 53.5,208C 90.2021,215.109 126.535,213.609 162.5,203.5 Z M 144.5,290.5 C 125.876,302.8 108.209,301.466 91.5,286.5C 110.815,281.507 130.148,276.507 149.5,271.5C 150.167,271.667 150.833,271.833 151.5,272C 149.872,278.424 147.539,284.59 144.5,290.5 Z"/></g>
<g><path style="opacity:1" fill="#344b57" d="M 36.5,214.5 C 40.1197,264.524 53.953,311.524 78,355.5C 90.8473,378.355 107.347,398.188 127.5,415C 153.284,434.391 181.951,440.557 213.5,433.5C 220.002,431.959 226.335,429.959 232.5,427.5C 252.612,456.249 279.945,474.582 314.5,482.5C 320.733,484.095 327.066,485.261 333.5,486C 371.299,488.307 404.966,477.807 434.5,454.5C 391.161,499.666 339.828,511.833 280.5,491C 263.685,484.434 248.685,475.101 235.5,463C 228.539,454.894 221.706,446.727 215,438.5C 176.673,449.588 142.507,442.088 112.5,416C 87.0357,391.845 67.8691,363.345 55,330.5C 40.0226,294.596 31.6893,257.263 30,218.5C 31.2725,215.778 33.4392,214.444 36.5,214.5 Z"/></g>
<g><path style="opacity:0.294" fill="#cb9900" d="M 20.5,231.5 C 21.525,231.897 21.6917,232.563 21,233.5C 20.5357,232.906 20.369,232.239 20.5,231.5 Z"/></g>
<g><path style="opacity:1" fill="#314955" d="M 317.5,278.5 C 315.849,274.531 313.682,270.865 311,267.5C 292.064,247.546 270.564,244.212 246.5,257.5C 266.422,232.55 290.089,228.384 317.5,245C 329.941,255.378 336.274,268.545 336.5,284.5C 330.007,282.634 323.673,280.634 317.5,278.5 Z"/></g>
<g><path style="opacity:1" fill="#40525e" d="M 144.5,290.5 C 147.539,284.59 149.872,278.424 151.5,272C 150.833,271.833 150.167,271.667 149.5,271.5C 130.148,276.507 110.815,281.507 91.5,286.5C 89.2086,285.458 88.2086,283.958 88.5,282C 111.803,276.216 134.97,270.05 158,263.5C 157.222,274.389 152.722,283.389 144.5,290.5 Z"/></g>
<g><path style="opacity:0.369" fill="#39200a" d="M 14.5,265.5 C 15.525,265.897 15.6917,266.563 15,267.5C 14.5357,266.906 14.369,266.239 14.5,265.5 Z"/></g>
<g><path style="opacity:1" fill="#324a55" d="M 461.5,321.5 C 459.56,317.72 457.393,314.054 455,310.5C 436.051,290.553 414.551,287.219 390.5,300.5C 408.127,277.131 430.127,271.964 456.5,285C 471.386,295.267 479.719,309.433 481.5,327.5C 474.503,326.374 467.837,324.374 461.5,321.5 Z"/></g>
<g><path style="opacity:1" fill="#354b57" d="M 203.5,331.5 C 203.803,343.622 205.137,355.622 207.5,367.5C 202.357,368.992 197.357,370.659 192.5,372.5C 192.167,372.5 191.833,372.5 191.5,372.5C 189.76,362.242 188.76,351.909 188.5,341.5C 180.003,344.082 172.003,347.749 164.5,352.5C 171.134,345.213 179.134,339.88 188.5,336.5C 193.208,333.98 198.208,332.314 203.5,331.5 Z"/></g>
<g><path style="opacity:1" fill="#d5dce2" d="M 607.5,334.5 C 607.5,421.833 607.5,509.167 607.5,596.5C 513.5,596.5 419.5,596.5 325.5,596.5C 432.955,585.061 514.455,533.395 570,441.5C 588.626,408.123 600.126,372.456 604.5,334.5C 605.5,334.5 606.5,334.5 607.5,334.5 Z"/></g>
<g><path style="opacity:1" fill="#304854" d="M 344.5,359.5 C 371.148,366.996 397.815,374.496 424.5,382C 418.856,387.812 412.523,392.646 405.5,396.5C 403.731,394.603 401.398,393.436 398.5,393C 355.519,381.005 312.519,369.172 269.5,357.5C 265.156,351.138 262.156,344.138 260.5,336.5C 288.587,343.855 316.587,351.522 344.5,359.5 Z"/></g>
<g><path style="opacity:1" fill="#bf4b40" d="M 207.5,367.5 C 213.09,388.593 221.423,408.593 232.5,427.5C 226.335,429.959 220.002,431.959 213.5,433.5C 203.118,414.356 196.118,394.022 192.5,372.5C 197.357,370.659 202.357,368.992 207.5,367.5 Z"/></g>
</svg>
